<?xml version="1.0" standalone="no"?>
<!DOCTYPE svg PUBLIC "-//W3C//DTD SVG 20010904//EN"
 "http://www.w3.org/TR/2001/REC-SVG-20010904/DTD/svg10.dtd">
<svg version="1.0" xmlns="http://www.w3.org/2000/svg"
 width="415.000000pt" height="415.000000pt" viewBox="0 0 415.000000 415.000000"
 preserveAspectRatio="xMidYMid meet">
<metadata>
Created by potrace 1.14, written by Peter Selinger 2001-2017
</metadata>
<g transform="translate(0.000000,415.000000) scale(0.100000,-0.100000)"
fill="#000000" stroke="none">
<path d="M1827 4066 l2 -86 -165 0 -164 0 0 -80 0 -80 -85 0 -85 0 0 -85 0
-85 -80 0 -80 0 0 -86 0 -85 -47 1 c-27 1 -65 1 -85 1 l-38 -1 0 -80 0 -80
-85 0 -85 0 0 -85 0 -85 -80 0 -80 0 0 -665 0 -665 80 0 80 0 0 -170 0 -170
85 0 85 0 1 -277 c1 -153 1 -302 0 -331 l-1 -52 85 0 85 0 0 -85 0 -85 80 0
80 0 0 -85 0 -85 85 0 85 0 0 -80 0 -80 85 0 85 0 0 -85 0 -85 80 0 80 0 0
-75 0 -75 170 0 c191 0 173 -9 170 84 -1 38 1 46 12 40 10 -6 9 -3 -1 10 -14
16 -10 17 60 16 41 -1 116 -2 167 -1 l92 1 0 85 0 85 85 0 85 0 0 80 0 80 80
0 80 0 0 85 c0 61 3 85 13 85 7 0 8 3 2 8 -16 11 -17 34 -3 43 21 14 31 10 18
-6 -9 -10 -9 -15 -1 -15 6 0 11 4 11 10 0 5 6 7 14 4 24 -9 29 17 7 37 -12 11
-21 15 -21 10 0 -6 8 -14 17 -20 10 -5 15 -13 11 -17 -4 -4 -14 -2 -21 5 -8 6
-22 9 -31 5 -9 -3 -16 -1 -16 5 0 6 4 11 9 11 5 0 12 9 16 19 4 13 12 18 23
15 14 -5 15 -4 2 5 -11 8 -19 6 -30 -10 -15 -19 -16 -19 -18 6 -1 19 2 24 11
19 8 -5 7 -2 -2 9 -21 26 -6 32 20 8 27 -25 28 -25 54 -4 16 13 17 15 3 10
-10 -4 -18 -3 -18 2 0 13 84 11 92 -2 4 -7 8 30 8 81 l0 92 85 0 85 0 0 250 0
250 80 0 80 0 0 85 0 85 78 1 c42 1 80 1 85 0 4 -1 7 262 7 584 l-1 585 -84 0
-85 0 0 165 0 165 -80 0 -80 0 0 165 0 165 -85 0 -85 0 0 85 c0 97 11 88 -107
85 l-63 -1 0 85 0 86 -80 0 -80 0 0 80 0 80 -92 1 c-51 1 -97 1 -101 0 -5 -1
-6 3 -2 9 3 6 9 8 13 6 4 -2 7 31 8 75 0 71 -1 76 -14 57 -12 -17 -13 -22 -1
-29 12 -7 11 -9 -1 -9 -13 0 -13 -1 0 -10 12 -8 12 -10 1 -10 -11 0 -11 -3 0
-17 13 -16 12 -17 -3 -4 -19 14 -25 2 -9 -14 6 -6 4 -20 -4 -35 -9 -15 -14
-19 -15 -10 0 13 -1 13 -10 0 -9 -13 -10 -13 -10 0 0 13 -1 13 -10 0 -6 -10
-10 -11 -10 -2 0 6 -7 12 -16 12 -8 0 -13 -4 -10 -8 3 -5 -1 -9 -9 -9 -8 0
-12 4 -9 9 3 4 0 8 -5 8 -6 0 -11 -5 -11 -11 0 -5 -5 -7 -11 -3 -8 5 -8 9 1
14 9 5 9 9 1 14 -6 4 -11 13 -11 19 0 9 2 9 8 0 6 -9 11 -7 20 8 11 17 10 20
-4 17 -10 -2 -18 4 -19 15 -2 9 1 15 6 11 5 -3 6 -10 3 -16 -4 -7 -2 -8 4 -4
9 5 9 13 2 27 -6 10 -7 19 -3 19 4 0 2 4 -6 9 -9 6 -10 11 -2 15 6 4 11 2 11
-4 0 -7 5 -8 13 -3 15 10 77 11 71 1 -2 -4 5 -6 16 -5 10 1 21 6 24 12 3 8
-91 12 -323 14 l-326 2 2 -85z m1643 -2318 c0 -4 -4 -8 -9 -8 -6 0 -12 4 -15
8 -3 5 1 9 9 9 8 0 15 -4 15 -9z m-76 -36 c3 -5 -1 -9 -9 -9 -8 0 -12 4 -9 9
3 4 7 8 9 8 2 0 6 -4 9 -8z m-500 -907 c3 -8 2 -15 -3 -15 -5 0 -14 7 -21 15
-10 12 -10 15 3 15 8 0 17 -7 21 -15z"/>
<path d="M2362 4118 c-10 -10 7 -58 21 -58 5 0 6 4 3 9 -3 5 1 14 9 21 8 7 12
17 8 23 -4 6 -1 7 6 3 9 -6 8 -13 -6 -28 -13 -15 -14 -20 -4 -16 18 5 37 35
29 43 -11 11 -56 13 -66 3z m22 -19 c-3 -5 -10 -7 -15 -3 -5 3 -7 10 -3 15 3
5 10 7 15 3 5 -3 7 -10 3 -15z"/>
<path d="M2449 4113 c-1 -5 -1 -11 -1 -14 1 -3 -19 -18 -43 -33 -48 -31 -62
-51 -39 -60 8 -3 12 -2 9 4 -3 5 4 8 15 7 11 -1 20 -4 20 -7 0 -3 11 -6 24 -6
17 0 22 4 18 15 -4 10 -1 12 9 6 12 -8 12 -6 1 8 -8 9 -10 22 -6 29 12 19 13
38 3 38 -6 0 -7 5 -4 10 3 6 4 10 1 10 -3 0 -7 -3 -7 -7z m1 -45 c0 -6 -3 -8
-7 -5 -8 8 -33 -11 -33 -25 0 -6 7 -5 15 2 8 7 15 10 15 6 0 -3 0 -9 0 -13 0
-4 -11 -8 -24 -9 -29 -1 -29 13 -1 38 23 20 35 23 35 6z"/>
<path d="M1695 4050 c-3 -5 -1 -10 4 -10 6 0 11 5 11 10 0 6 -2 10 -4 10 -3 0
-8 -4 -11 -10z"/>
<path d="M1735 4050 c-3 -5 -1 -10 4 -10 6 0 11 5 11 10 0 6 -2 10 -4 10 -3 0
-8 -4 -11 -10z"/>
<path d="M1690 4009 c0 -5 5 -7 10 -4 6 3 10 8 10 11 0 2 -4 4 -10 4 -5 0 -10
-5 -10 -11z"/>
<path d="M1735 4010 c-3 -5 -1 -10 4 -10 6 0 11 5 11 10 0 6 -2 10 -4 10 -3 0
-8 -4 -11 -10z"/>
<path d="M566 2471 c-3 -5 1 -11 9 -14 9 -4 12 -1 8 9 -6 16 -10 17 -17 5z"/>
<path d="M635 2460 c-3 -6 1 -7 9 -4 18 7 21 14 7 14 -6 0 -13 -4 -16 -10z"/>
<path d="M620 2438 c8 -8 20 -19 25 -26 8 -9 11 -7 11 8 0 10 -2 17 -4 15 -3
-2 -14 0 -26 6 -18 9 -19 8 -6 -3z"/>
<path d="M548 2403 c7 -3 16 -2 19 1 4 3 -2 6 -13 5 -11 0 -14 -3 -6 -6z"/>
<path d="M600 2390 c-8 -5 -10 -10 -5 -10 6 0 17 5 25 10 8 5 11 10 5 10 -5 0
-17 -5 -25 -10z"/>
<path d="M560 2370 c-8 -5 -11 -10 -6 -10 6 0 1 -7 -10 -16 -19 -15 -19 -15 1
-6 11 6 23 9 27 9 3 -1 10 2 15 7 5 6 2 6 -6 1 -11 -6 -13 -4 -8 8 7 20 7 20
-13 7z"/>
<path d="M628 2373 c6 -2 18 -2 25 0 6 3 1 5 -13 5 -14 0 -19 -2 -12 -5z"/>
<path d="M510 2331 c0 -6 4 -13 10 -16 6 -3 7 1 4 9 -7 18 -14 21 -14 7z"/>
<path d="M590 2330 c0 -5 5 -10 10 -10 6 0 10 5 10 10 0 6 -4 10 -10 10 -5 0
-10 -4 -10 -10z"/>
<path d="M509 2193 c-13 -16 -12 -17 4 -4 9 7 17 15 17 17 0 8 -8 3 -21 -13z"/>
<path d="M774 1790 c0 -13 4 -16 10 -10 7 7 7 13 0 20 -6 6 -10 3 -10 -10z"/>
<path d="M686 1788 c3 -5 10 -6 15 -3 13 9 11 12 -6 12 -8 0 -12 -4 -9 -9z"/>
<path d="M735 1719 c-4 -6 -5 -12 -2 -15 2 -3 7 2 10 11 7 17 1 20 -8 4z"/>
<path d="M755 1711 c-3 -5 -2 -12 3 -15 5 -3 9 1 9 9 0 17 -3 19 -12 6z"/>
<path d="M2935 791 c-3 -12 -10 -19 -15 -16 -5 3 -14 -4 -20 -16 -7 -12 -8
-19 -2 -15 6 3 13 0 16 -6 3 -7 3 -2 0 11 -4 15 -2 21 4 17 11 -7 38 32 29 41
-3 2 -8 -5 -12 -16z"/>
<path d="M2971 794 c0 -11 3 -14 6 -6 3 7 2 16 -1 19 -3 4 -6 -2 -5 -13z"/>
<path d="M2954 772 c3 -6 1 -12 -6 -14 -7 -3 -5 -7 6 -11 11 -5 15 -3 10 5 -5
8 -2 9 9 5 24 -9 21 0 -4 14 -13 6 -19 7 -15 1z"/>
<path d="M2926 724 c-9 -24 -2 -26 12 -4 7 11 8 20 3 20 -5 0 -12 -7 -15 -16z"/>
<path d="M2956 713 c-14 -14 -24 -28 -21 -31 2 -3 14 6 25 19 18 21 20 21 18
5 -2 -10 4 -21 12 -23 9 -3 11 -1 5 4 -5 4 -10 15 -10 23 0 8 5 18 10 22 6 5
6 8 -1 8 -6 0 -23 -12 -38 -27z"/>
<path d="M2910 681 c0 -7 -4 -9 -10 -6 -6 4 -7 -1 -3 -11 6 -15 7 -15 15 1 6
9 7 19 4 22 -3 4 -6 1 -6 -6z"/>
<path d="M2952 671 c-11 -6 -10 -10 4 -15 9 -3 19 -4 22 -1 3 3 0 5 -7 5 -7 0
-9 5 -6 10 7 12 4 12 -13 1z"/>
<path d="M2860 666 c0 -2 7 -7 16 -10 8 -3 12 -2 9 4 -6 10 -25 14 -25 6z"/>
<path d="M2255 90 c-3 -5 -1 -10 4 -10 6 0 11 5 11 10 0 6 -2 10 -4 10 -3 0
-8 -4 -11 -10z"/>
<path d="M2186 68 c3 -5 10 -6 15 -3 13 9 11 12 -6 12 -8 0 -12 -4 -9 -9z"/>
</g>
</svg>
